<?xml version="1.0" encoding="utf-8"?>
<!-- Generator: Adobe Illustrator 23.0.1, SVG Export Plug-In . SVG Version: 6.00 Build 0)  -->
<svg version="1.1" id="Calque_1" xmlns="http://www.w3.org/2000/svg" xmlns:xlink="http://www.w3.org/1999/xlink" x="0px" y="0px"
	 width="432px" height="432px" viewBox="0 0 432 432" style="enable-background:new 0 0 432 432;" xml:space="preserve">
<style type="text/css">
	.st0{fill:#A1848D;}
	.st1{fill:#333333;}
	.st2{fill:#506D65;}
	.st3{fill:#6A8962;}
	.st4{fill:#D6A96E;}
	.st5{fill:#71AA76;}
	.st6{fill:#EAC250;}
	.st7{fill:#8E8DAC;}
	.st8{fill:#DA7756;}
	.st9{fill:#D49580;}
	.st10{fill:#A291B2;}
	.st11{fill:#D39E29;}
	.st12{fill:#BE914C;}
	.st13{fill:#BE684C;}
	.st14{fill:#B6C8A3;}
	.st15{fill:#F6C6C4;}
	.st16{fill:#9BAD3F;}
	.st17{fill:#65C8D0;}
	.st18{fill:#D2B2B1;}
	.st19{fill:#9790AC;}
	.st20{fill:#526679;}
	.st21{fill:#2F618D;}
	.st22{fill:#E0A351;}
	.st23{fill:#495B23;}
	.st24{fill:#BC4952;}
	.st25{fill:#C1272D;}
	.st26{fill:#1A1A1A;}
	.st27{fill:#FBB03B;}
	.st28{fill:#009245;}
	.st29{fill:#F8AF3C;}
	.st30{fill:#A3B348;}
	.st31{fill:#EB6183;}
	.st32{fill:#B78494;}
	.st33{fill:#9EAE87;}
	.st34{fill:#838BC5;}
	.st35{fill:#BA9BC9;}
	.st36{fill:#DDCA3E;}
	.st37{fill:#DC9E4D;}
	.st38{fill:#548D8E;}
	.st39{fill:#534741;}
	.st40{fill:#C7B299;}
	.st41{fill-rule:evenodd;clip-rule:evenodd;fill:#C19246;}
	.st42{fill:#E6AD60;}
	.st43{fill:#C99685;}
</style>
<g>
	<g>
		<g>
			<path class="st1" d="M99.448,134.703c-1.836,0.076-3.749,0.076-5.585,0c-2.294,0-1.606-0.306-3.289-4.36
				c-0.612-1.454-1.913-5.355-2.371-6.808C88.05,123.229,87.821,123,87.515,123H69.003c-0.306,0-0.536,0.229-0.689,0.458
				c-0.535,1.683-2.371,6.961-3.289,9.562c-0.46,1.453-0.612,1.683-2.142,1.683c-1.836,0.076-3.672,0-5.508,0
				c-0.383,0-0.766,0-1.148,0c-0.306-0.076-0.612-0.306-0.612-0.612c0-0.612,0.23-1.148,0.383-1.606
				c1.683-4.743,13.463-37.56,17.67-49.263c1.148-3.137,0.918-2.601,3.825-2.601c1.301,0.077,2.677,0.077,3.978,0
				c0.841,0,1.453,0.23,1.759,1.148c0.689,2.142,12.545,36.106,17.67,50.946C101.207,133.709,100.52,134.703,99.448,134.703z
				 M85.373,115.12l-7.038-20.425c-0.152-0.306-0.612-0.306-0.689,0c-2.294,6.732-4.665,13.463-6.655,20.425
				c-0.077,0.23,0.077,0.459,0.383,0.459H84.99C85.22,115.579,85.45,115.35,85.373,115.12z"/>
			<path class="st1" d="M136.171,112.214c-0.689,4.437-2.678,8.262-5.661,11.627c-4.819,5.202-10.633,8.721-17.518,10.403
				c-1.912,0.459-3.901,0.383-5.814,0.535c-1.07,0-1.224-0.229-1.3-1.453c-0.077-0.765-0.077-1.53-0.077-2.295
				c-0.154-11.321-0.306-22.719-0.46-34.04c0-4.284-0.076-8.644-0.152-12.928c0-0.765,0-1.53,0.152-2.295
				c0.077-1.071,0.306-1.224,1.378-1.224c0.841-0.076,1.682,0,2.6,0c8.644,0.306,15.682,4.054,21.343,10.556
				C135.94,97.22,137.47,104.335,136.171,112.214z M128.062,99.974c-2.6-5.814-7.573-8.721-13.31-11.092
				c-0.306-0.076-0.689,0.154-0.689,0.46c0.152,12.01,0.306,23.867,0.383,35.647c0,0.306,0.306,0.536,0.612,0.46
				c0.382-0.077,0.764-0.23,0.994-0.383c2.984-1.377,5.661-3.137,8.109-5.279C130.433,114.355,130.815,106.094,128.062,99.974z"/>
			<path class="st1" d="M172.202,81.844c-0.077,0.766-10.556,45.745-11.857,51.176c-0.383,1.607-0.383,1.607-2.065,1.607
				c-1.684,0-3.366,0.076-5.126,0c-1.53-0.077-1.988-0.536-2.448-2.066c-4.513-16.37-13.769-50.258-13.845-50.793
				c-0.23-0.918,0-1.224,0.918-1.3c0.918-0.077,1.836-0.077,2.754-0.077c0.994,0,2.524,0,3.518,0c1.453,0,1.683,0.077,1.989,1.377
				c0.458,1.683,9.18,34.117,9.332,34.729c0.229-0.535,5.89-23.102,8.644-34.041c0.077-0.458,0.152-0.841,0.383-1.224
				c0.076-0.306,0.458-0.612,0.688-0.612c1.989,0,3.902,0,6.044,0C171.82,80.62,172.356,81.232,172.202,81.844z"/>
			<path class="st1" d="M204.563,133.02c0,1.147-0.23,1.301-1.301,1.377c-0.46,0.076-0.841,0.076-1.301,0.076
				c-6.808,0.077-13.616,0.077-20.424,0.154c-0.612,0-1.147,0-1.683-0.077c-1.07-0.077-1.376-0.383-1.453-1.453
				c0-0.536,0-1.072,0-1.607c-0.077-9.868-0.229-19.736-0.306-29.527c-0.077-6.273-0.152-12.545-0.229-18.818
				c0-2.371,0.152-2.448,2.448-2.448c5.966-0.077,19.277,0,22.26,0c0.306,0,0.612,0.229,0.612,0.535
				c0.077,1.454,0.154,4.514,0.154,5.432c-0.077,0.688-0.612,1.224-1.301,1.3c-2.754,0.077-15.147,0.306-15.376,0.306
				c0,2.448-0.077,8.262-0.077,14.535c0.306,0,15.605-0.077,16.142-0.077c1.07,0,1.376,0.995,1.376,1.607
				c0,1.836-0.152,2.906-0.152,4.896c0,0.612-0.536,1.07-1.072,1.147c-2.6,0.077-5.125,0-7.65,0.077c-2.831,0.076-5.66,0-8.568,0
				v16.446c2.219,0,8.109-0.153,12.545-0.153c4.513,0,5.279-0.536,5.279,1.912C204.563,130.114,204.563,131.567,204.563,133.02z"/>
			<path class="st1" d="M240.595,132.867c0,1.606-0.229,1.836-1.836,1.836c-2.142,0-4.207-0.076-6.349,0
				c-1.072,0-1.989-0.612-2.372-1.53c-3.441-8.109-10.862-25.244-11.321-25.626c0,1.989,0.306,24.938,0.23,26.009
				c0,0.918-0.154,1.072-1.072,1.072c-2.448,0.076-4.819,0.076-7.267,0c-0.841,0-1.072-0.306-1.072-1.378
				c-0.076-1.682-0.688-44.674-0.764-50.793c0-0.306,0-0.535,0-0.918c0-0.535,0.458-0.918,0.918-0.994c0.995,0,1.836,0,2.754,0
				c1.53,0,3.06,0,4.59,0c1.607,0,1.682,0.076,2.219,1.53c3.518,9.027,11.245,28.38,11.321,28.38c0-0.383-0.306-28.074-0.306-28.992
				c0.076-0.612,0.306-0.994,0.994-0.994c2.448,0,4.973,0,7.42,0c1.072,0,1.147,0.152,1.301,1.224
				c0.077,0.535,0.612,44.98,0.612,50.334C240.595,132.255,240.672,132.561,240.595,132.867z"/>
			<path class="st1" d="M273.644,85.822c-0.077,0.612-0.535,1.072-1.147,1.148l-9.562,0.153c0,1.453,0,2.831,0,4.131
				c0.077,4.666,0.152,32.281,0.152,41.461c0,1.453-0.152,1.683-1.682,1.683c-1.913,0-3.825,0.076-5.737,0.076
				c-1.53,0-1.607-0.152-1.607-1.53c-0.077-9.409-0.306-39.318-0.383-44.826c0-0.23-0.077-0.536-0.077-0.842
				c-2.754-0.306-5.583,0.076-8.414-0.23c-0.535-0.076-0.995-0.535-0.995-1.07c-0.152-1.53-0.306-3.06-0.229-4.59
				c0-0.46,0.458-0.766,0.918-0.842c0.383,0,27.462,0.076,27.615,0.076c0.612,0,1.07,0.46,1.147,1.072
				C273.796,83.068,273.72,84.369,273.644,85.822z"/>
			<path class="st1" d="M307.61,120.016c0,3.29-0.458,6.502-2.294,9.409c-2.066,3.06-4.973,4.742-8.568,5.125
				c-2.219,0.153-4.437,0.153-6.579,0c-4.284-0.459-7.19-2.907-8.797-6.808c-1.072-2.6-1.53-5.354-1.684-8.108
				c-0.152-4.055-0.612-28.916-0.764-37.254c0-1.836,0-1.836,1.759-1.836c1.683,0,3.366,0,4.973,0c0.306,0,0.612,0.076,0.918,0.076
				c0.535,0.077,0.841,0.46,0.918,0.918c0.077,1.607,0.152,3.137,0.152,4.59c0.077,7.573,0.077,15.147,0.154,22.796
				c0.077,3.518,0.306,7.038,0.458,10.556c0.154,1.913,0.536,3.672,1.836,5.126c2.448,2.83,6.426,2.524,8.338-0.612
				c0.689-1.148,1.072-2.372,1.147-3.672c0.077-3.29,0.23-6.579,0.23-9.944c-0.077-9.027-0.154-18.13-0.23-27.156
				c0-0.612-0.076-1.224-0.076-1.836s0.306-0.918,0.918-0.918c2.065,0,4.13,0.076,6.195,0.152c0.536,0,0.842,0.383,0.842,0.918
				c0.076,0.383,0.076,0.918,0.076,1.378C307.533,95.231,307.61,107.624,307.61,120.016z"/>
			<path class="st1" d="M345.477,133.097c0,0.994-0.306,1.376-1.376,1.453c-0.918,0.077-1.913,0.077-2.831-0.077
				c-4.13-0.764-7.42-2.906-10.174-5.89c-2.983-3.29-4.971-7.65-6.043-11.933c-0.077-0.306-0.229-0.612-0.306-0.994h-2.065
				c-0.077,1.224,0.152,16.676,0.077,17.823c-0.077,0.688-0.46,1.148-1.224,1.148c-0.612,0-1.148,0.076-1.76,0.076
				c-1.224-0.076-2.523-0.076-3.824-0.153c-0.229,0-0.383,0-0.612,0c-0.689-0.077-1.301-0.612-1.301-1.301
				c-0.077-0.764-0.841-51.252-0.841-51.558c0-0.612,0.306-0.918,0.841-0.995c0.46-0.077,0.918-0.153,1.378-0.229
				c5.583-0.306,11.015,0.076,16.446,1.147c4.742,0.918,7.879,3.825,9.791,8.032c1.988,4.284,2.371,8.874,1.453,13.463
				c-0.306,1.53-0.995,3.06-1.682,4.436c-0.995,2.219-2.678,3.825-4.743,5.049c-0.995,0.458-1.988,0.994-3.06,1.606
				c0.077,1.76,0.535,3.978,1.301,5.508c1.759,3.29,4.207,5.584,8.032,6.273c2.294,0.459,2.065,0.077,2.218,2.525
				C345.324,130.037,345.401,131.567,345.477,133.097z M336.527,101.733c0.764-1.988,0.688-4.054,0.382-6.196
				c-0.306-1.912-1.3-3.442-2.754-4.743c-3.289-2.831-7.267-3.137-11.474-2.907v19.965c2.983,0.154,5.814,0,8.491-0.918
				C333.774,106.094,335.61,104.411,336.527,101.733z"/>
			<path class="st1" d="M376.385,133.02c0,1.147-0.23,1.301-1.301,1.377c-0.46,0.076-0.841,0.076-1.301,0.076
				c-6.808,0.077-13.616,0.077-20.424,0.154c-0.612,0-1.147,0-1.684-0.077c-1.07-0.077-1.376-0.383-1.453-1.453
				c0-0.536,0-1.072,0-1.607c-0.077-9.868-0.229-19.736-0.306-29.527c-0.077-6.273-0.152-12.545-0.229-18.818
				c0-2.371,0.152-2.448,2.448-2.448c5.966-0.077,19.277,0,22.26,0c0.306,0,0.612,0.229,0.612,0.535
				c0.077,1.454,0.154,4.514,0.154,5.432c-0.077,0.688-0.612,1.224-1.301,1.3c-2.754,0.077-15.147,0.306-15.376,0.306
				c0,2.448-0.077,8.262-0.077,14.535c0.306,0,15.605-0.077,16.142-0.077c1.07,0,1.376,0.995,1.376,1.607
				c0,1.836-0.152,2.906-0.152,4.896c0,0.612-0.536,1.07-1.072,1.147c-2.6,0.077-5.125,0-7.65,0.077c-2.831,0.076-5.66,0-8.568,0
				v16.446c2.219,0,8.109-0.153,12.545-0.153c4.513,0,5.279-0.536,5.279,1.912C376.385,130.114,376.385,131.567,376.385,133.02z"/>
		</g>
		<g>
			<path class="st1" d="M104.041,170.91c0,0.55,0,21.07,0,30.506c0,1.237,0,1.237-1.237,1.282c-1.007,0-2.015,0-3.023,0
				c-0.138,0-0.274,0-0.412,0c-0.413-0.046-0.687-0.367-0.687-0.733c-0.046-10.306-0.092-21.024-0.138-31.147
				c0-0.549,0.458-0.549,0.595-0.549c1.374,0,2.244,0,3.39,0C103.675,170.268,104.087,170.177,104.041,170.91z"/>
			<path class="st1" d="M121.173,200.454c-2.382,2.107-5.313,2.474-8.337,1.741c-1.969-0.458-3.71-1.375-5.313-2.611
				c-0.092-0.046-0.183-0.138-0.275-0.183c-0.825-0.733-0.825-0.916-0.138-1.832c0.413-0.504,0.825-1.008,1.191-1.512
				c0.55-0.687,0.595-0.687,1.282-0.229c1.008,0.687,2.015,1.283,3.207,1.603c1.053,0.275,2.107,0.458,3.206,0.275
				c2.199-0.321,3.756-1.924,4.123-4.077c0.137-0.641,0-1.191-0.275-1.74c-0.504-1.145-1.374-1.878-2.474-2.382
				c-1.237-0.55-2.473-1.1-3.664-1.649c-0.733-0.366-1.466-0.733-2.153-1.145c-2.473-1.695-3.71-4.077-3.939-7.054
				c-0.183-2.107,0.229-4.076,1.282-5.863c1.053-1.74,2.519-2.931,4.535-3.389c3.252-0.687,6.733,0.321,8.428,1.328
				c0.321,0.183,0.595,0.413,0.916,0.641c0.87,0.687,0.916,0.733,0.412,1.741c-0.274,0.55-0.595,1.053-0.962,1.603
				c-0.367,0.595-0.596,0.641-1.237,0.274c-0.595-0.32-1.145-0.687-1.74-1.007c-0.962-0.458-1.97-0.687-3.023-0.687
				c-2.702,0-4.489,2.153-3.985,4.855c0.321,1.832,1.283,3.252,2.977,4.031c0.825,0.367,1.695,0.733,2.565,1.054
				c1.237,0.458,2.381,1.1,3.481,1.878c1.649,1.1,2.656,2.703,3.023,4.672C125.067,194.591,124.059,197.888,121.173,200.454z"/>
			<path class="st1" d="M163.18,193.904c-0.779,2.84-2.336,5.176-4.718,6.916c-1.603,1.191-3.389,1.832-5.359,1.878
				c-5.68,0.138-9.848-2.336-12.596-7.283c-1.054-1.924-1.375-4.031-1.603-6.138c-0.138-0.733-0.138-1.466-0.183-2.015
				c0.138-3.207,0.367-6.184,1.512-8.978c1.053-2.565,2.656-4.581,4.809-6.229c1.329-1.008,2.84-1.42,4.443-1.649
				c3.848-0.595,6.871,1.053,9.573,3.573c1.832,1.787,3.069,3.985,3.848,6.412C164.325,184.834,164.417,189.369,163.18,193.904z
				 M159.379,185.384c-0.092-0.825-0.229-1.97-0.458-3.115c-0.55-2.794-1.969-5.084-4.443-6.642
				c-2.565-1.649-6.275-0.962-8.061,1.512c-0.825,1.099-1.42,2.336-1.832,3.664c-0.733,2.565-0.962,5.222-0.825,7.878
				c0.138,1.924,0.641,3.802,1.512,5.542c1.557,3.115,4.855,4.718,8.062,3.848c2.107-0.595,3.573-1.924,4.489-3.848
				c1.008-2.199,1.466-4.488,1.603-7.374C159.424,186.346,159.424,185.888,159.379,185.384z"/>
			<path class="st1" d="M184.3,193.904c0,1.969-0.275,3.894-1.375,5.634c-1.237,1.832-2.977,2.84-5.13,3.069
				c-1.328,0.092-2.656,0.092-3.939,0c-2.565-0.275-4.306-1.741-5.268-4.076c-0.641-1.557-0.916-3.207-1.008-4.856
				c-0.092-2.427-0.366-17.314-0.458-22.306c0-1.1,0-1.1,1.054-1.1c1.007,0,2.015,0,2.977,0c0.183,0,0.366,0.046,0.55,0.046
				c0.32,0.046,0.504,0.275,0.55,0.55c0.046,0.962,0.092,1.878,0.092,2.749c0.046,4.534,0.046,9.069,0.092,13.65
				c0.046,2.107,0.183,4.214,0.274,6.321c0.092,1.145,0.321,2.199,1.1,3.069c1.466,1.695,3.848,1.512,4.993-0.366
				c0.412-0.687,0.641-1.42,0.687-2.199c0.046-1.97,0.138-3.939,0.138-5.955c-0.046-5.405-0.092-10.856-0.138-16.261
				c0-0.367-0.046-0.733-0.046-1.1c0-0.366,0.183-0.55,0.55-0.55c1.237,0,2.474,0.046,3.71,0.092c0.321,0,0.504,0.229,0.504,0.55
				c0.046,0.229,0.046,0.55,0.046,0.825C184.254,179.063,184.3,186.483,184.3,193.904z"/>
			<path class="st1" d="M204.959,173.429c-0.046,0.366-0.321,0.641-0.687,0.687l-5.725,0.092c0,0.87,0,1.694,0,2.473
				c0.045,2.795,0.091,19.33,0.091,24.827c0,0.87-0.091,1.007-1.007,1.007c-1.145,0-2.29,0.046-3.436,0.046
				c-0.916,0-0.962-0.092-0.962-0.916c-0.046-5.634-0.183-23.544-0.229-26.841c0-0.138-0.046-0.321-0.046-0.504
				c-1.649-0.183-3.343,0.046-5.038-0.138c-0.321-0.046-0.595-0.321-0.595-0.641c-0.092-0.916-0.183-1.832-0.138-2.749
				c0-0.274,0.275-0.458,0.55-0.504c0.229,0,16.444,0.046,16.536,0.046c0.366,0,0.641,0.275,0.687,0.641
				C205.051,171.78,205.005,172.559,204.959,173.429z"/>
			<path class="st1" d="M236.981,173.429c-0.046,0.366-0.321,0.641-0.687,0.687l-5.725,0.092c0,0.87,0,1.694,0,2.473
				c0.045,2.795,0.091,19.33,0.091,24.827c0,0.87-0.091,1.007-1.007,1.007c-1.145,0-2.29,0.046-3.436,0.046
				c-0.916,0-0.962-0.092-0.962-0.916c-0.046-5.634-0.183-23.544-0.229-26.841c0-0.138-0.046-0.321-0.046-0.504
				c-1.649-0.183-3.343,0.046-5.038-0.138c-0.321-0.046-0.595-0.321-0.595-0.641c-0.092-0.916-0.183-1.832-0.138-2.749
				c0-0.274,0.275-0.458,0.549-0.504c0.229,0,16.444,0.046,16.536,0.046c0.366,0,0.641,0.275,0.687,0.641
				C237.073,171.78,237.027,172.559,236.981,173.429z"/>
			<path class="st1" d="M261.489,201.828c0,0.825-0.138,1.008-0.87,1.008c-1.237,0-2.474-0.046-3.756-0.092
				c-0.412,0-0.733-0.321-0.779-0.733c0-0.183-0.092-12.596-0.092-13.467l-10.123,0.183c0,0.412,0.138,13.192,0.138,13.421
				c0,0.32-0.275,0.595-0.595,0.595c-1.512,0-2.977,0-4.443-0.046c-0.504,0-0.595-0.138-0.595-0.779
				c0-1.695-0.229-30.415-0.229-30.735c0.046-0.733,0.138-0.825,0.825-0.87c1.053-0.046,2.153-0.046,3.207-0.046
				c0.274,0,0.55-0.046,0.824,0c0.367,0,0.687,0.321,0.687,0.733c0.046,0.916,0.046,1.969,0.046,2.931
				c0.046,3.115,0.138,9.711,0.138,10.031c3.39-0.045,6.642-0.091,10.032-0.137c0-0.275-0.092-8.703-0.183-12.688
				c0-0.779,0.092-0.916,0.779-0.87c1.282,0,2.565,0.046,3.847,0.092c0.642,0,0.779,0.138,0.87,0.779
				C261.26,171.642,261.489,200.683,261.489,201.828z"/>
			<path class="st1" d="M280.821,201.69c0,0.687-0.138,0.779-0.779,0.825c-0.274,0.046-0.504,0.046-0.779,0.046
				c-4.076,0.046-8.153,0.046-12.23,0.092c-0.366,0-0.687,0-1.008-0.046c-0.641-0.046-0.824-0.229-0.87-0.87c0-0.32,0-0.641,0-0.962
				c-0.046-5.908-0.138-11.817-0.183-17.68c-0.046-3.756-0.092-7.512-0.138-11.268c0-1.42,0.092-1.466,1.466-1.466
				c3.573-0.046,11.543,0,13.329,0c0.183,0,0.366,0.138,0.366,0.321c0.046,0.87,0.092,2.702,0.092,3.252
				c-0.046,0.413-0.366,0.733-0.779,0.779c-1.649,0.046-9.069,0.183-9.206,0.183c0,1.466-0.046,4.947-0.046,8.703
				c0.183,0,9.344-0.046,9.665-0.046c0.641,0,0.825,0.595,0.825,0.962c0,1.099-0.092,1.74-0.092,2.931
				c0,0.366-0.321,0.641-0.641,0.687c-1.557,0.046-3.069,0-4.581,0.046c-1.695,0.046-3.39,0-5.13,0v9.848
				c1.328,0,4.855-0.092,7.512-0.092c2.702,0,3.16-0.32,3.16,1.145C280.821,199.95,280.821,200.82,280.821,201.69z"/>
			<path class="st1" d="M302.948,201.736c0,0.595-0.183,0.825-0.825,0.87c-0.55,0.046-1.145,0.046-1.695-0.046
				c-2.474-0.458-4.443-1.741-6.092-3.527c-1.786-1.969-2.977-4.581-3.619-7.145c-0.046-0.183-0.137-0.367-0.183-0.596h-1.237
				c-0.046,0.733,0.092,9.986,0.046,10.673c-0.046,0.412-0.274,0.687-0.733,0.687c-0.366,0-0.687,0.046-1.053,0.046
				c-0.733-0.046-1.512-0.046-2.29-0.092c-0.138,0-0.229,0-0.367,0c-0.412-0.046-0.779-0.367-0.779-0.779
				c-0.046-0.458-0.504-30.689-0.504-30.872c0-0.366,0.183-0.55,0.504-0.595c0.275-0.046,0.55-0.092,0.825-0.138
				c3.344-0.183,6.596,0.046,9.848,0.687c2.84,0.55,4.718,2.29,5.863,4.81c1.191,2.565,1.42,5.313,0.87,8.062
				c-0.183,0.916-0.596,1.832-1.008,2.656c-0.595,1.328-1.603,2.29-2.84,3.023c-0.595,0.275-1.191,0.595-1.832,0.962
				c0.046,1.053,0.321,2.381,0.779,3.298c1.054,1.969,2.52,3.344,4.81,3.756c1.374,0.275,1.237,0.046,1.328,1.512
				C302.856,199.904,302.902,200.82,302.948,201.736z M297.588,182.956c0.458-1.191,0.412-2.428,0.229-3.71
				c-0.183-1.145-0.779-2.061-1.649-2.84c-1.969-1.695-4.351-1.878-6.871-1.741v11.955c1.787,0.092,3.481,0,5.084-0.55
				C295.939,185.567,297.039,184.56,297.588,182.956z"/>
			<path class="st1" d="M321.455,201.69c0,0.687-0.138,0.779-0.779,0.825c-0.274,0.046-0.504,0.046-0.779,0.046
				c-4.076,0.046-8.153,0.046-12.23,0.092c-0.366,0-0.687,0-1.008-0.046c-0.641-0.046-0.824-0.229-0.87-0.87c0-0.32,0-0.641,0-0.962
				c-0.046-5.908-0.138-11.817-0.183-17.68c-0.046-3.756-0.092-7.512-0.138-11.268c0-1.42,0.092-1.466,1.466-1.466
				c3.573-0.046,11.543,0,13.329,0c0.183,0,0.366,0.138,0.366,0.321c0.046,0.87,0.092,2.702,0.092,3.252
				c-0.046,0.413-0.366,0.733-0.779,0.779c-1.649,0.046-9.069,0.183-9.206,0.183c0,1.466-0.046,4.947-0.046,8.703
				c0.183,0,9.344-0.046,9.665-0.046c0.641,0,0.825,0.595,0.825,0.962c0,1.099-0.092,1.74-0.092,2.931
				c0,0.366-0.321,0.641-0.641,0.687c-1.557,0.046-3.069,0-4.581,0.046c-1.695,0.046-3.39,0-5.13,0v9.848
				c1.328,0,4.855-0.092,7.512-0.092c2.702,0,3.16-0.32,3.16,1.145C321.455,199.95,321.455,200.82,321.455,201.69z"/>
		</g>
	</g>
	<g>
		<g>
			<path class="st2" d="M233.215,260.34c9.113-3.581,8.649-3.378,9.721-4.281c1.488-1.255,0.372-4.04-3.037-2.573
				c-7.61,3.275-10.255,4.18-9.429,6.146C230.91,260.68,232.154,260.757,233.215,260.34z"/>
			<path class="st2" d="M221.536,280.573c1.51,0.211,2.218-2.877,4.114-9.865c0.65-2.392,1.369-4.651-0.469-5.243
				c-1.352-0.436-2.112,0.704-2.738,1.888c-1.614,3.052-2.348,6.344-2.694,10.141C219.883,278.17,219.892,280.345,221.536,280.573z"
				/>
			<path class="st2" d="M219.74,297.567c2.251-4.172,3.046-9.524,3.05-10.129c0.022-2.724-2.903-3.323-3.893-0.81
				c-0.317,0.806-0.341,1.011-2.5,9.818c-0.183,0.744-0.86,1.821,0.335,2.989C217.774,300.456,219.413,298.173,219.74,297.567z"/>
			<path class="st2" d="M251.753,253.615c0.505-0.085,0.74-0.082,0.939-0.164c1.684-0.698,3.373-1.388,5.035-2.135
				c1.314-0.591,1.71-1.793,1.479-2.398c-0.232-0.605-1.304-1.324-3-0.607c-3.417,1.444-6.69,2.818-5.628,4.351
				C250.887,253.109,251.45,253.38,251.753,253.615z"/>
			<path class="st2" d="M140.984,287.115c-0.471,0.415-0.915,0.859-1.506,1.416c-0.378-1.485-0.851-2.639-2.373-2.696
				c-1.528-0.057-2.083,1.042-2.474,2.38c-0.862-0.288-2.191-1.212-3.571,0.097c-3.139,2.976,5.024,12.004,10.027,7.458
				c1.804-1.639,2.986-3.738,3.939-5.943C146.004,287.566,143.52,284.883,140.984,287.115z"/>
			<path class="st2" d="M174.82,281.057c2.649-1.394,4.084-3.71,4.915-6.465c0.385-1.276-0.129-2.471-1.16-3.011
				c-1.925-1.009-3.154,0.803-4.435,2.226c-0.547-1.258-1.015-2.491-2.595-2.189c-1.042,0.199-1.428,0.988-1.516,3.165
				c-0.371-0.425-0.554-0.612-0.71-0.82c-0.166-0.222-0.284-0.484-0.463-0.693c-1.464-1.711-3.903-0.504-3.755,1.413
				c0.042,0.534,0.154,1.181,0.485,1.554C169.735,280.918,171.295,282.912,174.82,281.057z"/>
			<path class="st2" d="M363.064,258.762c-4.715-11.416-1.81-1.885-7.906-23.02c-0.895-3.103-1.464-5.03-3.512-5.161
				c-1.258-0.081-2.185,0.584-2.696,1.64c-0.601,1.242-1.157,2.543-1.47,3.88c-1.263,5.403-4.825,21.163-8.162,25.587
				c-2.863-0.085-3.814-0.603-5.018-2.68c0.081-0.075,0.155-0.162,0.246-0.222c3.637-2.406,0.684-4.164-2.097-6.462
				c0.632-0.064,0.895-0.066,1.148-0.121c1.954-0.425,2.789-2.227,1.785-3.964c-0.879-1.519-4.128-4.245-7.184-7.833
				c2.585,0.549,5.242,1.529,6.786-0.832c2.092-3.198-2.339-5.737-5.174-11.735c1.008,0.522,1.781,1.066,2.64,1.335
				c2.667,0.837,4.622-2.429,2.299-4.654c-2.836-2.716-6.338-5.556-7.529-9.811c-0.91-3.246-3.336-3.673-4.815-1.952
				c-1.368,1.591-1.236,3.234-5.893,6.492c-2.04,1.428-3.918,2.427-4.73,3.411c-1.031,1.25-0.56,2.833,0.974,3.335
				c0.496,0.162,1.039,0.184,1.748,0.302c-4.155,3.661-6.6,5.087-5.355,7.41c1.233,2.302,4.203,1.049,6.71,0.205
				c0.067,0.114,0.133,0.228,0.2,0.343c-5.762,5.37-3.674,3.294-7.865,6.665c-3.429,2.759-1.743,5.401,0.527,5.574
				c1.219,0.093,1.823,0.24,8.112-2.919c-1.051,3.013-7.679,6.613-8.051,10.17c-0.219,0.023-0.349,0.08-0.432,0.04
				c-11.156-5.389-10.628-4.941-11.06-6.296c-1.747-5.472-3.187-11.019-4.026-16.712c-0.39-2.638-1.06-5.236-3.722-5.087
				c-3.945,0.22-2.583,4.838-7.22,15.692c-25.319-1.665-33.912-3.631-44.992-2.857c-2.641-5.847-2.955-8.528-4.175-10.162
				c-0.97-1.3-2.904-1.417-3.913-0.154c-1.503,1.883-2.012,5.004-2.631,6.963c-0.291,0.921-0.702,1.804-1.13,2.884
				c-18.501-16.39-23.996-42.569-63.344-9.07c-7.379-4.612-9.75-6.27-13.554-7.922c-7.024-3.052-13.52,1.274-18.578,7.066
				c-9.576,10.968-10.114,11.684-17.812,16.14c-1.112-0.841-2.265-1.474-2.969-2.708c0.235-0.033,0.344-0.061,0.454-0.062
				c2.849-0.019,3.886-1.799,2.489-4.288c-0.863-1.538-1.891-3.023-1.656-3.382c0.641-0.978,0.186-2.012,0.136-3.018
				c1.406,0,2.691,0.094,3.956-0.02c2.285-0.207,3.209-2.187,1.985-4.125c-0.396-0.627-3.999-4.712-4.681-5.453
				c-4.31-4.682-6.205-6.734-9.639-3.446c-8.594,8.227-9.008,8.505-9.713,9.431c-2.074,2.724-1.645,4.764,2.302,4.891
				c1.475,0.048,2.952,0.014,4.777,0.014c-5.82,8.312-8.412,10.637-9.843,13.66c-1.402,2.959,2.134,3.441,3.04,3.801
				c0.6,0.238,1.172,0.547,1.774,0.834c-0.744,4.047-2.596,3.357-7.089,6.322c-2.013,1.328-1.804,3.706,0.343,4.811
				c0.372,0.192,0.774,0.326,1.238,0.518c-1.634,1.892-4.048,2.122-6.01,3.377c-4.02-11.656-5.199-20.752-6.564-24.808
				c-0.679-2.018-3.515-2.321-4.612-0.282c-0.998,1.854-0.866,1.907-5.012,16.608c-1.356,4.809,1.992,10.575,5.398,14.047
				c6.079,6.196,9.895,6.023,18.982,13.89c16.874,14.609,40.393,23.965,47.521,28.709c13.69,9.11,27.686,17.732,41.828,26.112
				c12.251,7.261,14.889,7.435,22.958,10.243c7.95,2.766,24.545,2.651,39.564-4.283c13.576-6.268,26.687-13.377,39.389-21.26
				c23.166-14.375,33.057-19.06,49.88-30.543c19.98-13.64,25.873-15.239,31.212-22.196
				C366.763,267.582,365.235,264.021,363.064,258.762z M110.257,283.331c0.198-0.189,0.266-0.306,0.326-0.303
				c0.956,0.057,1.786-0.112,2.197-1.121c0.755-1.856-1.457-2.443-4.574-5.985c5,1.687,5.043,1.857,7.288,1.699
				c1.534-0.108,2.487-0.752,2.72-1.807c0.473-2.142-1.831-2.679-6.157-6.292c2.181,0,4.467,0.272,5.214-1.813
				c1.414-3.947-4.502-3.189-7.629-9.779c3.134-2.777,0.662-3.334-0.438-6.457c5.73,1.766,7.505,2.953,9.624,2.733
				c1.734-0.18,2.419-1.794,1.356-3.175c-0.576-0.747-1.264-1.212-4.116-3.654c-0.075-0.065-0.097-0.194-0.226-0.471
				c4.436-2.566,8.488-5.494,11.849-9.446c3.373,1.868,4.343,3.358,7.21,4.867c2.424,1.276,5.133-1.195,3.936-3.924
				c-0.507-1.155-1.052-2.294-1.565-3.408c2.759-1.378,2.987-1.597,3.592-1.428c2.046,0.573,3.903-1.189,3.536-3.386
				c-0.035-0.208-0.005-0.426-0.005-0.809c3.238,1.406,8.03,3.55,9.489-0.618c1.731,0.934,3.376,1.821,5.428,2.928
				c-0.534,0.344-0.923,0.542-1.252,0.813c-21.384,17.644-12.948,10.815-18.757,15.084c-0.855,0.628-2.369,1.769-1.274,3.282
				c0.764,1.056,1.956,1.01,2.97,0.353c8.092-5.241,2.21-0.772,23.524-17.628c1.607-1.27,2.175-2.018,3.413-1.08
				c2.4,1.818,3.744,2.886,5.288,1.856c0.992-0.662,1.251-1.636,1.109-2.779c-0.224-1.81-0.045-2.078,1.71-2.534
				c5.131-1.332,7.108,1.102,13.465,6.468c1.262,1.065,3.285,3.195,5.037,4.111c2.072,1.083,4.035-0.06,4.082-2.391
				c0.04-2.029-0.978-4.594-1.375-7.748c1.013,0.698,1.745,1.298,2.562,1.74c6.518,3.519,5.216-2.158,8.6-0.591
				c2.106,0.975,1.51,0.612,14.414,10.254c0.079,0.059,0.109,0.182,0.257,0.441c-28.816,6.457-39.755,2.046-59.98,12.383
				c-16.42,8.393-14.2,7.284-14.992,8.131c0.319,0.253,0.628,0.702,0.96,0.719c0.705,0.037,1.473-0.017,2.124-0.269
				c15.934-6.191,22.568-11.448,42.564-12.856c12.03-0.847,14.136-0.65,31.418-4.138c16.502-3.331,16.842-2.379,24.465-1.931
				c0.012,0.142,0.024,0.284,0.036,0.427c-19.55,4.398-34.786,5.803-38.346,23.572c-2.056,10.265,2.659,21.482-10.394,29.595
				c-11.65,7.242-18.53,3.046-30.795,10.375c-3.888,2.323-6.798,5.554-8.258,10.133
				C144.352,306.443,127.301,294.943,110.257,283.331z M197.415,338.835c-15.908-6.288-26.674-14.898-32.715-19.299
				c1.694-7.318,9.935-11.551,17.246-13.143c7.373-1.605,13.221-1.921,20.829-6.725c12.41-7.835,11.028-17.833,11.593-24.822
				c0.323-3.986-0.287-16.119,12.095-21.362c4.696-1.988,9.609-3.17,14.55-4.301c18.204-4.164,18.457-4.455,19.357-4.378
				c4.03,0.347,8.056,0.741,12.351,1.146c-3.676,2.708-17.546,10.809-25.503,15.252c-2.423,1.353-4.682,3.01-6.956,4.614
				c-2.069,1.46-3.684,3.379-5.152,5.434c-3.522,4.929-2.762,8.42-2.699,14.093c0.309,26.889-28.322,23.748-23.679,46.917
				c0.802,4.003,1.836,7.924,3.981,11.46c0.075,0.124,0.074,0.294,0.121,0.5C207.19,344.549,204.781,341.747,197.415,338.835z
				 M352.083,268.326c-7.764,3.752-14.658,8.892-21.807,13.626c-0.005,0.003-42.965,28.506-42.965,28.506
				c-0.774-1.103-1.493-2.129-2.381-3.395c1.511,0,2.816,0.231,3.603-1.194c0.843-1.527-0.646-2.757-2.318-4.601
				c0.686,0.066,1.107,0.112,1.528,0.146c2.258,0.183,3.717-2.135,2.36-4.111c-0.85-1.238-1.158-1.364-2.096-2.857
				c0.296-0.143,0.549-0.256,0.792-0.386c2.183-1.162,2.247-3.573,0.147-4.913c-3.22-2.055-2.786-1.904-3.227-2.509
				c1.654,0.114,3.386,0.535,3.892-0.805c0.563-1.489-0.358-1.853-4.878-5.605c0.186-2.392,0.186-2.392-3.278-5.516
				c0.347-0.269,0.715-0.501,1.016-0.799c1.306-1.291,1.085-3.319-0.622-4.022c-6.788-2.796-8.906-8.749-12.866-5.404
				c-1.958,1.654-2.986,3.914-8.614,7.612c-0.371,0.244-0.752,0.492-1.063,0.803c-0.691,0.694-0.863,1.698-0.428,2.459
				c0.874,1.529,2.408,1.048,3.513,0.885c0.066,0.104,0.132,0.208,0.198,0.312c-0.894,0.885-1.751,1.812-2.693,2.642
				c-1.975,1.741-4.259,2.689-3.363,4.028c0.781,1.17,1.825,0.581,3.211,0.122c-2.494,2.527-5.277,4.483-3.07,7.686
				c-4.757,1.475-7.625,1.772-7.604,4.883c0.023,3.331,3.741,3.772,7.086,3.772c-3.142,3.577-5.607,4.712-2.096,7.797
				c-2.838,2.415-3.326,2.691-4.967,4.117c-2.974,2.582-1.718,5.14,0.44,5.721c0.411,0.111,0.847,0.13,1.578,0.236
				c-3.446,3.067-9.205,7.168-3.49,10.175c0.23,0.121,0.451,0.26,0.839,0.485c-1.723,0.847-4.359,2.016-5.514,3.078
				c-1.991,1.833-1.594,4.564,0.79,5.831c0.378,0.201,0.781,0.353,1.348,0.607c-8.523,4.902-17.461,7.457-27.269,6.927
				c-2.065-3.469-3.612-7.203-4.391-11.229c-2.035-10.528-1.074-12.315,8.753-20.443c5.64-4.664,10.243-10.077,12.709-17.082
				c4.927-13.999-3.036-17.838,7.893-26.72c3.676-2.987,6.001-4.259,25.582-16.113c11.098-6.719,10.654-6.626,11.864-6.434
				c4.112,0.651,5.993,1.963,11.608,5.312c26.55,15.832,48.384,15.518,61.317,15.518
				C352.618,267.905,352.382,268.182,352.083,268.326z"/>
			<path class="st2" d="M306.943,268.461c-0.371,0.23-0.685,0.553-1.027,0.834c-1.756-2.56-3.984-2.09-5.037,1.253
				c-0.41-0.566-0.592-0.934-0.879-1.179c-1.865-1.591-4.337,0.358-3.437,2.551c0.664,1.617,1.696,2.971,2.875,4.248
				c1.911,2.069,4.767,2.575,7.079,1.063c2.137-1.398,3.231-3.601,4.184-5.871c0.102-0.243,0.087-0.549,0.078-0.824
				C310.72,268.534,308.645,267.406,306.943,268.461z"/>
			<path class="st2" d="M192.646,318.398c-2.984,2.39-8.241,12.668-4.616,13.763c1.788,0.541,2.367-1.5,2.668-2.105
				c3.802-7.627,4.284-8.493,4.761-9.685C196.089,318.8,194.156,317.188,192.646,318.398z"/>
			<path class="st2" d="M212.592,305.552c0.621-1.303-0.209-2.559-2.001-2.613c-2.013,0.936-0.357-0.659-9.074,6.83
				c-0.369,0.317-0.661,0.758-0.889,1.194c-0.865,1.657,0.922,2.801,2.005,2.349c0.562-0.234,1.197-0.36,1.68-0.702
				c2.264-1.606,4.524-3.224,6.702-4.943C211.684,307.137,212.218,306.335,212.592,305.552z"/>
		</g>
	</g>
	<path class="st2" d="M82.828,156.142c-1.243,0-2.327-0.017-3.409,0.016c-0.188,0.006-0.41,0.184-0.548,0.341
		c-0.938,1.066-1.862,2.144-2.783,3.224c-1.233,1.446-2.472,2.888-3.686,4.349c-0.73,0.878-1.64,1.286-2.796,1.22
		c-1.341-0.077-2.686-0.099-4.027-0.187c-1.041-0.068-1.433-0.815-0.844-1.66c0.441-0.633,0.976-1.211,1.518-1.768
		c1.6-1.643,3.225-3.262,4.838-4.892c0.155-0.157,0.298-0.326,0.551-0.605c-0.756,0-1.372-0.035-1.98,0.019
		c-0.211,0.019-0.441,0.226-0.594,0.403c-1.497,1.732-2.975,3.48-4.469,5.216c-0.732,0.85-1.476,1.69-2.229,2.521
		c-0.704,0.778-1.595,1.172-2.66,1.082c-1.452-0.123-2.905-0.259-4.35-0.446c-0.801-0.104-1.171-0.805-0.842-1.528
		c0.177-0.388,0.421-0.763,0.702-1.088c0.943-1.091,1.901-2.171,2.882-3.229c0.873-0.94,1.786-1.845,2.68-2.767
		c0.073-0.075,0.13-0.164,0.254-0.324c-0.366,0-0.635,0.011-0.903-0.002c-1.062-0.05-2.128-0.063-3.182-0.182
		c-0.489-0.055-0.988-0.261-1.422-0.504c-0.85-0.476-1.017-1.359-0.478-2.166c0.388-0.58,0.966-0.898,1.613-1.121
		c1.132-0.388,2.313-0.45,3.494-0.498c0.321-0.013,0.643-0.002,1.079-0.002c-0.15-0.21-0.22-0.34-0.32-0.442
		c-1.424-1.462-2.861-2.912-4.275-4.383c-0.698-0.727-1.365-1.483-2.025-2.243c-0.207-0.238-0.385-0.517-0.511-0.804
		c-0.269-0.615-0.011-1.182,0.622-1.441c0.148-0.061,0.311-0.125,0.466-0.124c1.527,0.013,3.055,0.013,4.58,0.073
		c0.826,0.033,1.471,0.467,2.025,1.067c2.204,2.393,4.425,4.773,6.639,7.157c0.14,0.151,0.297,0.292,0.415,0.458
		c0.311,0.437,0.727,0.571,1.257,0.528c0.478-0.038,0.962-0.008,1.607-0.008c-0.259-0.282-0.417-0.458-0.579-0.63
		c-1.882-2.006-3.768-4.007-5.642-6.02c-0.295-0.317-0.572-0.661-0.798-1.028c-0.436-0.706-0.081-1.416,0.766-1.467
		c1.619-0.098,3.243-0.16,4.854,0.128c0.803,0.144,1.457,0.511,2.011,1.115c2.294,2.498,4.615,4.972,6.913,7.466
		c0.272,0.295,0.546,0.437,0.956,0.419c0.67-0.029,1.342-0.008,2.14-0.008c-0.164-0.211-0.253-0.35-0.367-0.466
		c-2.033-2.053-4.072-4.102-6.103-6.157c-0.273-0.277-0.55-0.559-0.77-0.876c-0.432-0.621-0.182-1.222,0.562-1.4
		c0.223-0.053,0.458-0.078,0.688-0.08c1.39-0.01,2.781-0.021,4.171-0.007c0.847,0.008,1.543,0.324,2.153,0.937
		c2.557,2.567,5.154,5.095,7.715,7.659c0.321,0.322,0.655,0.361,1.057,0.359c8.578-0.042,17.156-0.084,25.734-0.117
		c15.209-0.058,199.96-0.108,215.168-0.166c5.495-0.021,10.989-0.055,16.483-0.081c0.878-0.004,1.756-0.001,2.677-0.001
		c-0.07-0.116-0.135-0.248-0.221-0.364c-0.382-0.514-0.826-0.992-1.14-1.542c-0.335-0.587-0.632-1.219-0.801-1.867
		c-0.382-1.466,0.399-2.645,1.932-2.897c0.767-0.126,1.572-0.139,2.349-0.078c2.412,0.188,4.751,0.773,7.067,1.422
		c4.451,1.247,8.892,2.527,13.327,3.825c0.793,0.232,1.575,0.554,2.299,0.946c1.958,1.06,2.242,3.181,0.658,4.726
		c-0.845,0.824-1.826,1.481-2.922,1.936c-1.981,0.823-3.972,1.629-5.979,2.388c-4.217,1.593-8.528,2.903-12.924,3.929
		c-0.986,0.23-2.01,0.345-3.023,0.415c-1.511,0.105-2.66-0.72-2.928-2.056c-0.073-0.366-0.049-0.771,0.022-1.141
		c0.226-1.172,0.752-2.235,1.327-3.276c0.294-0.532,0.596-1.06,0.908-1.613c-0.125-0.037-0.188-0.072-0.249-0.072
		c-5.401,0.038-10.802,0.093-16.204,0.118c-12.218,0.056-193.978,0.098-206.195,0.146c-10.989,0.044-21.978,0.088-32.967,0.134
		c-1.345,0.006-2.689,0.042-4.034,0.028c-0.437-0.005-0.733,0.134-1.016,0.451c-2.031,2.271-4.127,4.488-6.096,6.81
		c-1.008,1.188-2.14,1.785-3.717,1.684c-1.294-0.083-2.595-0.051-3.893-0.072c-0.461-0.007-0.885-0.108-1.115-0.551
		c-0.229-0.441-0.08-0.851,0.192-1.21c0.261-0.345,0.556-0.668,0.857-0.982c1.777-1.853,3.56-3.701,5.34-5.551
		C82.484,156.543,82.598,156.403,82.828,156.142z M353.691,147.498c0.151,0.268,0.211,0.409,0.301,0.528
		c0.563,0.749,1.146,1.483,1.697,2.241c0.402,0.553,0.788,1.12,1.14,1.705c0.346,0.574,0.43,1.201,0.147,1.828
		c-0.269,0.598-0.543,1.198-0.865,1.77c-0.626,1.109-1.291,2.197-1.932,3.298c-0.083,0.143-0.117,0.312-0.199,0.538
		c0.238-0.056,0.393-0.083,0.543-0.129c3.249-0.985,6.512-1.927,9.741-2.972c2.635-0.853,5.23-1.825,7.84-2.753
		c0.334-0.119,0.648-0.29,0.972-0.436c-0.004-0.049-0.007-0.099-0.011-0.148C366.701,150.993,360.304,149.125,353.691,147.498z"/>
</g>
</svg>
